<svg viewBox="0 0 77 34" xml:space="preserve" xmlns:xlink="http://www.w3.org/1999/xlink" xmlns="http://www.w3.org/2000/svg"><defs><linearGradient id="e"><stop style="stop-color:#274770;stop-opacity:1" offset="0"/><stop style="stop-color:#4e79af;stop-opacity:1" offset="1"/></linearGradient><linearGradient id="d"><stop style="stop-color:#4e79af;stop-opacity:1" offset="0"/><stop style="stop-color:#345c75;stop-opacity:1" offset="1"/></linearGradient><linearGradient id="c"><stop style="stop-color:#719cc5;stop-opacity:1" offset="0"/><stop style="stop-color:#4e79af;stop-opacity:1" offset="1"/></linearGradient><linearGradient id="b"><stop style="stop-color:#4e79af;stop-opacity:1" offset="0"/><stop style="stop-color:#345c75;stop-opacity:1" offset="1"/></linearGradient><linearGradient id="a"><stop style="stop-color:#719cc5;stop-opacity:1" offset="0"/><stop style="stop-color:#4e79af;stop-opacity:1" offset="1"/></linearGradient><linearGradient xlink:href="#a" id="g" gradientUnits="userSpaceOnUse" x1="110.55" y1="187.94" x2="112.57" y2="184.25"/><linearGradient xlink:href="#b" id="h" gradientUnits="userSpaceOnUse" x1="100.44" y1="191.48" x2="102.73" y2="184.97"/><linearGradient xlink:href="#c" id="i" gradientUnits="userSpaceOnUse" x1="90.1" y1="188.76" x2="92.15" y2="184.28"/><linearGradient xlink:href="#d" id="j" gradientUnits="userSpaceOnUse" x1="76.24" y1="193.73" x2="82.82" y2="187.46"/><linearGradient xlink:href="#a" id="k" gradientUnits="userSpaceOnUse" x1="110.55" y1="187.94" x2="112.57" y2="184.25" gradientTransform="matrix(1.19816 0 0 1.26886 7.3 126.71)"/><linearGradient xlink:href="#b" id="m" gradientUnits="userSpaceOnUse" x1="100.44" y1="191.48" x2="102.73" y2="184.97" gradientTransform="matrix(1.19816 0 0 1.26886 7.3 126.71)"/><linearGradient xlink:href="#c" id="o" gradientUnits="userSpaceOnUse" x1="90.1" y1="188.76" x2="92.15" y2="184.28" gradientTransform="matrix(1.19816 0 0 1.26886 7.3 126.71)"/><linearGradient xlink:href="#d" id="q" gradientUnits="userSpaceOnUse" x1="76.24" y1="193.73" x2="82.82" y2="187.46" gradientTransform="matrix(1.19816 0 0 1.26886 7.3 126.71)"/><linearGradient xlink:href="#e" id="t" gradientUnits="userSpaceOnUse" gradientTransform="matrix(1.15907 0 0 1.17003 32.81 108.8)" x1="77.32" y1="230.54" x2="86.48" y2="209.68"/><clipPath clipPathUnits="userSpaceOnUse" id="f"><path style="fill:#fff;fill-opacity:1;stroke:none;stroke-width:1.3;stroke-linecap:round;stroke-linejoin:round;stroke-dasharray:none;stroke-opacity:1" transform="scale(1 -1)" d="M63.77-190.06h63.09v9.65H63.77z"/></clipPath><clipPath clipPathUnits="userSpaceOnUse" id="s"><path style="fill:#fff;fill-opacity:1;stroke:none;stroke-width:1.3;stroke-linecap:round;stroke-linejoin:round;stroke-dasharray:none;stroke-opacity:1" transform="scale(1 -1)" d="M63.77-190.06h63.09v9.65H63.77z"/></clipPath><clipPath clipPathUnits="userSpaceOnUse" id="r"><path style="fill:#fff;fill-opacity:1;stroke:none;stroke-width:1.60291;stroke-linecap:round;stroke-linejoin:round;stroke-dasharray:none;stroke-opacity:1" transform="scale(1 -1)" d="M83.71-367.87h75.59v12.25H83.71z"/></clipPath><clipPath clipPathUnits="userSpaceOnUse" id="p"><path style="fill:#fff;fill-opacity:1;stroke:none;stroke-width:1.60291;stroke-linecap:round;stroke-linejoin:round;stroke-dasharray:none;stroke-opacity:1" transform="scale(1 -1)" d="M83.71-367.87h75.59v12.25H83.71z"/></clipPath><clipPath clipPathUnits="userSpaceOnUse" id="n"><path style="fill:#fff;fill-opacity:1;stroke:none;stroke-width:1.60291;stroke-linecap:round;stroke-linejoin:round;stroke-dasharray:none;stroke-opacity:1" transform="scale(1 -1)" d="M83.71-367.87h75.59v12.25H83.71z"/></clipPath><clipPath clipPathUnits="userSpaceOnUse" id="l"><path style="fill:#fff;fill-opacity:1;stroke:none;stroke-width:1.60291;stroke-linecap:round;stroke-linejoin:round;stroke-dasharray:none;stroke-opacity:1" transform="scale(1 -1)" d="M83.71-367.87h75.59v12.25H83.71z"/></clipPath></defs><g transform="matrix(1.19816 0 -.38704 -.54696 -2.14 120.4)" style="opacity:.4;stroke:#274770;stroke-width:1.60587;stroke-linecap:round;stroke-linejoin:round;stroke-dasharray:none;stroke-opacity:1" clip-path="url(#f)"><path style="opacity:1;fill:url(#g);fill-opacity:1;stroke:none;stroke-width:1.60586;stroke-linecap:round;stroke-linejoin:round;stroke-dasharray:none;stroke-opacity:1" d="m114.72 191.12-2.09-.91-1.61-.66-1.22-1.9-.03-1.34-1.6-.04-2.2-.47-.06-1.84 1.85-1.28 2.12-.45 4.03 2.01 1.74.84 3.18 5.2" stroke="none"/><path style="opacity:1;fill:url(#h);fill-opacity:1;stroke:none;stroke-width:1.60586;stroke-linecap:round;stroke-linejoin:round;stroke-dasharray:none;stroke-opacity:1" d="m103.63 192.32-2.77-1.2.09-.74-.72-.3-1.58.67-1.93-1.15-.84-2.57c1.46.57 5.17-.33 5.87-.74l.72.14 1.56-1.53.36-.66.6 2.2.66.32 1.05 3.2 1.36 1.3.5 1.58" stroke="none"/><path style="opacity:1;fill:url(#i);fill-opacity:1;stroke:none;stroke-width:1.60586;stroke-linecap:round;stroke-linejoin:round;stroke-dasharray:none;stroke-opacity:1" d="m92.91 189.37-1.65-.57-1.94-.6-2-.68-1.57-1.52 2.85-.2c.57-.38.96-.77 1.45-.93l1.63-1.46 1.15 2.07 1.16 1.46.4 1.67.58 1.35" stroke="none"/><path style="opacity:1;fill:url(#j);fill-opacity:1;stroke:none;stroke-width:1.60586;stroke-linecap:round;stroke-linejoin:round;stroke-dasharray:none;stroke-opacity:1" d="m71.69 190.7.69-1.08 2.24-1.05.55.05 1.24-.77 1.47-1.62.39-.08 1.45-1.82 1.54-.51 1.38 3.16 2.42 2.5.2.99 1.55 2.08" stroke="none"/><g style="stroke:#274770;stroke-width:1.60587;stroke-opacity:1"><path style="opacity:1;fill:none;stroke:#274770;stroke-width:1.60586;stroke-linecap:round;stroke-linejoin:round;stroke-dasharray:none;stroke-opacity:1" d="m112.85 183.96.5.48.56-.2 1.74.84 3.21 4.77"/><path style="opacity:1;fill:none;fill-opacity:1;stroke:#274770;stroke-width:1.60586;stroke-linecap:round;stroke-linejoin:round;stroke-dasharray:none;stroke-opacity:1" d="m71.76 190.24.62-.62 2.24-1.05.55.05 1.24-.77 1.47-1.62.39-.08 1.45-1.82 1.54-.51 1.38 3.16 2.42 2.5.2.99 1.49 1.61"/><path style="opacity:1;fill:none;stroke:#274770;stroke-width:1.60586;stroke-linecap:round;stroke-linejoin:round;stroke-dasharray:none;stroke-opacity:1" d="m81.26 183.82 3.15 2.3.83-.59.5.26 2.86.02c.57-.4.96-.78 1.45-.94l1.63-1.46 1.15 2.07 1.16 1.46.4 1.67.57.93"/><path style="opacity:1;fill:none;fill-opacity:1;stroke:#274770;stroke-width:1.60586;stroke-linecap:round;stroke-linejoin:round;stroke-dasharray:none;stroke-opacity:1" d="m91.68 183.41 2.12.89.7.88 1.36 1.17.43.48 1.17.46 1.82-.57c1.46.56 1.77-.02 2.47-.43l.72.14 1.56-1.53.36-.66.6 2.2.66.32 1.05 3.2 1.36 1.3.62 1.19"/><path style="opacity:1;fill:none;stroke:#274770;stroke-width:1.60586;stroke-linecap:round;stroke-linejoin:round;stroke-dasharray:none;stroke-opacity:1" d="m109.47 181.88 1.37.86 1.2 1.08.8.14"/><path style="opacity:1;fill:none;fill-opacity:1;stroke:#274770;stroke-width:1.60586;stroke-linecap:round;stroke-linejoin:round;stroke-dasharray:none;stroke-opacity:1" d="M104.4 184.24s.49-.01.72-.08c1.13-.35 2.53-1.61 2.99-1.9.24-.17.83.28.83.28l.53-.66"/></g></g><path style="fill:url(#k);fill-opacity:1;stroke:none;stroke-width:1.29999;stroke-linecap:round;stroke-linejoin:round;stroke-dasharray:none;stroke-opacity:1" d="m144.76 369.21-2.5-1.15-1.93-.84-1.47-2.4-.03-1.7-1.91-.06-2.64-.6-.07-2.33 2.2-1.62 2.56-.57 4.82 2.55 2.08 1.06 3.82 6.59" clip-path="url(#l)" transform="translate(-83 -351.7)"/><path style="fill:url(#m);fill-opacity:1;stroke:none;stroke-width:1.29999;stroke-linecap:round;stroke-linejoin:round;stroke-dasharray:none;stroke-opacity:1" d="m131.47 370.73-3.31-1.51.1-.94-.87-.37-1.88.84-2.32-1.46-1-3.26c1.75.72 6.19-.42 7.03-.94l.87.18 1.86-1.95.44-.83.71 2.8.8.4 1.25 4.07 1.63 1.64.61 2" clip-path="url(#n)" transform="translate(-83 -351.7)"/><path style="fill:url(#o);fill-opacity:1;stroke:none;stroke-width:1.29999;stroke-linecap:round;stroke-linejoin:round;stroke-dasharray:none;stroke-opacity:1" d="m118.64 367-1.99-.72-2.32-.78-2.39-.85-1.9-1.92 3.42-.25c.7-.5 1.16-.99 1.74-1.2l1.96-1.84 1.37 2.62 1.39 1.85.48 2.12.7 1.72" clip-path="url(#p)" transform="translate(-83 -351.7)"/><path style="fill:url(#q);fill-opacity:1;stroke:none;stroke-width:1.29999;stroke-linecap:round;stroke-linejoin:round;stroke-dasharray:none;stroke-opacity:1" d="m93.2 368.69.83-1.38 2.68-1.33.67.07 1.48-.98 1.77-2.05.46-.11 1.74-2.31 1.84-.65 1.65 4.01 2.9 3.18.25 1.25 1.85 2.64" clip-path="url(#r)" transform="translate(-83 -351.7)"/><g style="stroke:#274770;stroke-width:1.05434;stroke-linecap:round;stroke-linejoin:round;stroke-dasharray:none;stroke-opacity:1" transform="matrix(1.19816 0 0 1.26886 -75.7 -225)" clip-path="url(#s)"><path style="opacity:1;fill:none;stroke:#274770;stroke-width:1.05433;stroke-linecap:round;stroke-linejoin:round;stroke-dasharray:none;stroke-opacity:1" d="m112.85 183.96.5.48.56-.2 1.74.84 3.21 4.77"/><path style="opacity:1;fill:none;fill-opacity:1;stroke:#274770;stroke-width:1.05433;stroke-linecap:round;stroke-linejoin:round;stroke-dasharray:none;stroke-opacity:1" d="m71.76 190.24.62-.62 2.24-1.05.55.05 1.24-.77 1.47-1.62.39-.08 1.45-1.82 1.54-.51 1.38 3.16 2.42 2.5.2.99 1.49 1.61"/><path style="opacity:1;fill:none;stroke:#274770;stroke-width:1.05433;stroke-linecap:round;stroke-linejoin:round;stroke-dasharray:none;stroke-opacity:1" d="m81.26 183.82 3.15 2.3.83-.59.5.26 2.86.02c.57-.4.96-.78 1.45-.94l1.63-1.46 1.15 2.07 1.16 1.46.4 1.67.57.93"/><path style="opacity:1;fill:none;fill-opacity:1;stroke:#274770;stroke-width:1.05433;stroke-linecap:round;stroke-linejoin:round;stroke-dasharray:none;stroke-opacity:1" d="m91.68 183.41 2.12.89.7.88 1.36 1.17.43.48 1.17.46 1.82-.57c1.46.56 1.77-.02 2.47-.43l.72.14 1.56-1.53.36-.66.6 2.2.66.32 1.05 3.2 1.36 1.3.62 1.19"/><path style="opacity:1;fill:none;stroke:#274770;stroke-width:1.05433;stroke-linecap:round;stroke-linejoin:round;stroke-dasharray:none;stroke-opacity:1" d="m109.47 181.88 1.37.86 1.2 1.08.8.14"/><path style="opacity:1;fill:none;fill-opacity:1;stroke:#274770;stroke-width:1.05433;stroke-linecap:round;stroke-linejoin:round;stroke-dasharray:none;stroke-opacity:1" d="M104.4 184.24s.49-.01.72-.08c1.13-.35 2.53-1.61 2.99-1.9.24-.17.83.28.83.28l.53-.66"/></g><path style="fill:none;fill-opacity:1;stroke:url(#t);stroke-width:1.3;stroke-linecap:round;stroke-linejoin:round;stroke-dasharray:none;stroke-opacity:1" d="M91.15 368.08h60.71" transform="translate(-83 -351.7)"/><text xml:space="preserve" style="font-size:8.03488px;font-family:'Bebas Neue';-inkscape-font-specification:'Bebas Neue';text-align:center;writing-mode:lr-tb;direction:ltr;text-anchor:middle;fill:#000;fill-opacity:1;stroke:none;stroke-width:1.30001;stroke-linecap:round;stroke-linejoin:round;stroke-dasharray:none;stroke-opacity:1" x="113.78" y="379.13" transform="translate(-83 -351.7)"><tspan style="font-style:normal;font-variant:normal;font-weight:400;font-stretch:normal;font-family:'Raleway SemiBold';-inkscape-font-specification:'Raleway SemiBold, ';fill:#000;fill-opacity:1;stroke:none;stroke-width:1.30001" x="114.77" y="379.13"> </tspan></text><path style="font-size:8.03488px;font-family:'Raleway Medium';-inkscape-font-specification:'Raleway Medium, ';text-align:center;text-anchor:middle;stroke-width:1.3;stroke-linecap:round;stroke-linejoin:round" d="M92.64 378.91q0 .35-.14.65-.14.3-.4.5-.23.2-.56.32-.32.11-.7.11h-2.91v-6.14h3.05q.32 0 .58.14.26.14.44.36.19.22.28.5.1.28.1.57 0 .46-.23.84-.22.4-.65.58.53.16.83.58.31.42.31.99zm-.78-.14q0-.2-.08-.4-.07-.2-.2-.34-.12-.15-.3-.24-.17-.08-.37-.08h-2.2v2.1h2.14q.21 0 .4-.08.17-.08.31-.22.14-.15.22-.34.08-.2.08-.4zm-3.15-3.74v2.05h1.95q.21 0 .38-.08.18-.09.3-.23.13-.13.2-.32t.07-.4q0-.21-.06-.4-.07-.2-.2-.33-.1-.14-.28-.22-.16-.07-.35-.07zm6.9 5.55q-.5 0-.93-.18-.43-.2-.73-.51-.3-.32-.48-.75-.16-.43-.16-.9 0-.48.16-.9.18-.43.48-.75.31-.32.74-.5.42-.19.93-.19t.93.19q.42.19.71.51.3.31.45.74.17.41.17.86l-.01.17-.01.12h-3.75q.03.34.16.62.13.28.34.47.2.2.46.32.27.1.57.1.2 0 .4-.04.2-.06.38-.16.17-.1.3-.23.14-.14.2-.31l.66.18q-.1.25-.3.46-.2.2-.46.36-.25.15-.56.23-.31.09-.65.09zm1.55-2.65q-.03-.32-.17-.59-.12-.27-.33-.46-.2-.2-.47-.3-.27-.1-.57-.1-.3 0-.57.1-.27.1-.48.3-.2.2-.33.46-.12.27-.14.6zm2.72 2.65q-.32 0-.6-.1-.27-.12-.48-.3-.2-.2-.32-.45-.11-.26-.11-.56 0-.31.14-.56.14-.26.39-.44.26-.19.6-.29.36-.1.77-.1.33 0 .67.06t.6.16v-.36q0-.56-.32-.87-.3-.32-.88-.32-.68 0-1.43.53l-.25-.5q.87-.58 1.75-.58.9 0 1.39.48.5.47.5 1.34v1.84q0 .27.24.28v.65l-.2.03h-.16q-.23 0-.37-.12-.13-.14-.15-.33l-.02-.32q-.3.4-.77.62-.46.21-.99.21zm.2-.57q.4 0 .76-.15.35-.15.53-.4.17-.17.17-.34v-.67q-.56-.21-1.15-.21-.58 0-.94.24-.35.24-.35.63 0 .19.07.35.07.17.2.29.14.12.32.19.19.07.4.07zm5.74.26-.18.08-.26.1-.32.07q-.16.03-.34.03-.42 0-.72-.22-.3-.24-.3-.72v-3.04h-.62v-.6h.62v-1.5h.76v1.5h1.01v.6h-1.01v2.8q.02.26.16.37.15.11.35.11.22 0 .4-.07.2-.07.27-.12zm2.64.3q-.5 0-.93-.17-.42-.2-.73-.51-.3-.32-.47-.75-.17-.43-.17-.9 0-.48.17-.9.17-.43.47-.75.31-.32.74-.5.42-.19.93-.19t.93.19q.42.19.72.51.29.31.45.74.16.41.16.86v.17q0 .08-.02.12h-3.74q.02.34.15.62.13.28.34.47.2.2.47.32.27.1.56.1.2 0 .4-.04.2-.06.38-.16.17-.1.3-.23.14-.14.2-.31l.67.18q-.12.25-.32.46-.19.2-.45.36-.25.15-.56.23-.3.09-.65.09zm1.55-2.64q-.02-.32-.16-.59-.13-.27-.34-.46-.2-.2-.47-.3-.26-.1-.57-.1-.3 0-.57.1-.27.1-.47.3-.2.2-.33.46-.12.27-.15.6zm5.49 2.56h-.76v-2.52q0-.73-.23-1.06-.22-.33-.67-.33-.23 0-.46.1-.24.08-.44.24-.21.16-.37.37-.15.22-.23.48v2.72h-.76v-4.51h.69v.97q.27-.48.77-.76.51-.29 1.1-.29.4 0 .66.15.26.14.41.4.16.25.22.6.07.34.07.74z" transform="translate(-83 -351.7)"/><path style="font-weight:800;font-size:8.03488px;font-family:'Raleway ExtraBold';-inkscape-font-specification:'Raleway ExtraBold, Ultra-Bold';text-align:center;text-anchor:middle;stroke-width:1.3;stroke-linecap:round;stroke-linejoin:round" d="M116.66 380.5v-6.15h1.41v6.14zm7.43 0v-3.68l-1.33 2.67H122l-1.33-2.67v3.67h-1.42v-6.14h1.54l1.6 3.21 1.6-3.2h1.52v6.13zm7.44 0v-3.68l-1.33 2.67h-.76l-1.33-2.67v3.67h-1.42v-6.14h1.54l1.59 3.21 1.6-3.2h1.53v6.13zm5.29.04q-.69 0-1.25-.26-.56-.27-.96-.7-.4-.45-.62-1-.22-.57-.22-1.17t.23-1.16q.23-.57.64-.99.41-.43.98-.68.56-.26 1.22-.26.69 0 1.25.27.56.26.96.7.4.45.61 1 .22.57.22 1.15 0 .6-.23 1.17-.23.56-.64 1-.4.42-.96.68-.57.25-1.23.25zm-1.6-3.1q0 .35.1.68.1.33.3.6.21.25.51.4.3.16.7.16.4 0 .7-.16.3-.17.5-.43t.3-.6q.1-.33.1-.68 0-.35-.1-.68-.1-.34-.31-.59-.2-.26-.51-.4-.3-.16-.68-.16-.41 0-.71.16t-.5.42q-.2.26-.3.6-.1.32-.1.67z" transform="translate(-83 -351.7)"/><path d="M141.5 376.88h3.65v3.66h-3.66z" fill="#da291c" style="stroke-width:4.23334" transform="translate(-83 -351.7)"/><path d="M142.98 377.57h.69v.8h.8v.69h-.8v.8h-.69v-.8h-.8v-.69h.8z" fill="#fff" style="stroke-width:4.23334" transform="translate(-83 -351.7)"/><path style="font-size:5.94486px;font-family:'Raleway Medium';-inkscape-font-specification:'Raleway Medium, ';text-align:center;text-anchor:middle;stroke-width:1.3;stroke-linecap:round;stroke-linejoin:round" d="M146.77 378.2q0-.4.14-.81.14-.41.42-.73.28-.33.68-.52.4-.2.92-.2.6 0 1.04.27.44.28.65.72l-.46.3q-.1-.22-.24-.37-.15-.15-.32-.24-.16-.09-.34-.13-.18-.03-.36-.03-.37 0-.67.16-.29.15-.48.4-.2.25-.3.57-.1.32-.1.64 0 .36.11.68.13.32.34.57.2.25.5.4.28.15.62.15.18 0 .37-.05.19-.04.36-.14.18-.1.32-.25.16-.15.25-.36l.48.26q-.1.25-.3.45-.2.2-.45.33-.24.13-.51.2-.28.07-.54.07-.47 0-.86-.2t-.68-.53q-.28-.33-.44-.75-.15-.42-.15-.86zm8.31-2.24v4.55h-.58v-2.07H152v2.07h-.57v-4.55h.57v1.97h2.5v-1.97z" aria-label="CH" transform="translate(-83 -351.7)"/></svg>